<svg xmlns="http://www.w3.org/2000/svg" width="262" height="248" viewBox="0 0 262 248">
<g>
<path d="M 77.00 237.60 C77.00,237.38 78.62,234.79 80.60,231.85 C84.99,225.33 89.34,215.90 92.29,206.52 C94.15,200.59 94.49,197.17 94.50,184.50 C94.50,166.67 93.67,163.06 82.89,133.92 C72.06,104.68 70.72,99.13 70.60,83.00 C70.52,71.65 70.86,68.39 72.72,62.50 C75.96,52.25 81.47,43.51 90.21,34.75 C97.62,27.32 102.15,24.36 98.62,29.25 C92.46,37.80 87.54,50.92 85.97,63.00 C84.91,71.11 84.96,73.98 86.34,82.62 C87.90,92.44 94.05,111.52 100.98,128.00 C105.28,138.22 109.70,154.90 111.04,165.89 C112.38,176.94 111.13,189.32 107.63,199.63 C104.40,209.12 102.69,212.30 96.29,220.75 C90.45,228.45 77.00,240.20 77.00,237.60 ZM 186.81 231.09 C178.70,229.42 173.84,225.80 165.00,214.82 C160.33,209.01 153.81,200.98 150.51,196.98 L 144.53 189.70 L 147.10 187.77 C148.52,186.71 154.01,183.90 159.31,181.51 L 168.93 177.18 L 187.42 199.93 C197.58,212.44 206.60,223.25 207.45,223.96 C208.30,224.67 209.00,225.82 209.00,226.51 C209.00,229.59 194.27,232.63 186.81,231.09 ZM 71.75 220.92 C69.53,219.63 69.41,214.44 71.58,213.61 C74.82,212.36 77.06,213.04 78.24,215.62 C79.29,217.93 79.16,218.46 77.10,220.12 C74.45,222.27 74.14,222.31 71.75,220.92 ZM 75.65 199.17 C73.25,196.51 73.62,193.44 76.63,191.07 C80.09,188.35 81.43,188.46 83.93,191.63 C86.52,194.93 86.53,196.47 84.00,199.00 C81.50,201.50 77.83,201.57 75.65,199.17 ZM 123.67 189.75 C118.95,174.58 119.35,162.84 124.97,151.41 C129.05,143.11 134.49,137.22 145.79,128.84 C155.99,121.27 159.44,117.97 164.10,111.29 C167.28,106.74 169.02,106.56 170.86,110.60 C173.72,116.88 171.45,123.08 162.39,133.76 C155.43,141.97 155.29,146.00 161.98,146.00 C164.72,146.00 175.06,140.29 178.85,136.68 C183.25,132.50 190.38,122.48 192.36,117.70 C193.23,115.61 194.42,109.99 195.01,105.20 C196.78,90.87 197.94,86.36 200.57,83.52 C201.92,82.06 203.81,81.01 204.77,81.19 C208.71,81.95 208.87,110.38 205.00,124.00 C200.90,138.48 191.70,152.39 180.05,161.74 C177.00,164.19 167.25,169.74 158.39,174.07 C141.77,182.19 134.26,187.61 129.97,194.54 C128.80,196.44 127.48,198.00 127.04,198.00 C126.60,198.00 125.08,194.29 123.67,189.75 ZM 74.17 176.69 C69.84,172.08 72.77,165.00 79.00,165.00 C85.32,165.00 88.29,172.50 83.69,176.83 C80.68,179.65 76.90,179.59 74.17,176.69 ZM 69.36 156.03 C64.13,153.87 62.49,147.19 66.07,142.63 C67.74,140.51 68.99,140.00 72.50,140.00 C76.01,140.00 77.26,140.51 78.93,142.63 C81.63,146.07 81.56,150.26 78.75,153.41 C76.18,156.29 72.48,157.32 69.36,156.03 ZM 58.47 130.73 C52.61,125.69 56.31,116.00 64.10,116.00 C68.28,116.00 72.00,119.93 72.00,124.34 C72.00,128.84 69.37,131.92 64.92,132.63 C62.06,133.09 60.78,132.72 58.47,130.73 ZM 174.26 131.00 C179.16,119.35 180.42,115.47 181.26,109.44 C184.83,84.01 165.80,58.22 140.24,53.84 C123.68,51.00 104.86,59.32 94.65,74.00 C92.95,76.43 92.92,76.25 93.42,67.00 C94.00,56.39 95.81,49.30 100.17,40.67 C102.62,35.82 103.86,34.51 107.58,32.86 C118.44,28.06 136.04,26.67 149.30,29.58 C153.26,30.44 160.77,33.24 166.00,35.79 C173.87,39.62 176.97,41.88 184.10,48.96 C192.16,56.96 199.22,67.02 200.57,72.44 C201.03,74.24 200.69,74.96 199.17,75.44 C196.86,76.18 192.48,81.61 190.94,85.65 C190.36,87.18 189.49,92.97 189.00,98.52 C187.94,110.55 186.05,116.56 180.99,124.02 C177.09,129.76 172.99,134.01 174.26,131.00 ZM 53.83 106.47 C48.69,103.68 49.27,95.99 54.77,93.90 C58.54,92.46 61.73,93.57 63.46,96.92 C65.38,100.63 63.96,105.24 60.40,106.86 C57.32,108.27 57.12,108.26 53.83,106.47 ZM 52.56 79.78 C50.51,76.85 50.59,74.68 52.83,72.65 C56.65,69.20 63.00,71.55 63.00,76.42 C63.00,81.57 55.50,83.98 52.56,79.78 ZM 60.20 57.80 C57.22,54.82 59.45,49.69 63.51,50.17 C67.27,50.61 68.74,53.09 67.22,56.42 C65.95,59.21 62.32,59.92 60.20,57.80 Z" fill="rgba(0,0,0,1)"/>
</g>
</svg>